<?xml version="1.0" encoding="utf-8"?>
<svg id="图层_1" data-name="图层 1" viewBox="0 0 512 512" xmlns="http://www.w3.org/2000/svg">
  <defs>
    <style>.cls-1{fill:#00458e;}.cls-2{fill:none;}</style>
  </defs>
  <path class="cls-1" d="M256,205.42,205.42,256,256,306.57,306.57,256Zm0,10.47L296.1,256,256,296.1,215.89,256Z"/>
  <path class="cls-1" d="M482.18,228.26l-21.6-21.6H432.34c-21.92-79-96.81-136.73-182.48-133.56V39.42l-21.6-21.6-21.6,21.6V79.78c-78.9,21.91-136.58,96.76-133.44,182.36H51.42l-21.6,21.6,21.6,21.6H79.86c21.91,79,96.63,136.52,182.28,133.56v33.68l21.6,21.6,21.6-21.6V432.26c79-21.88,136.68-96.68,133.68-182.4h21.56Zm-269.92-48.6V41.74l16-16V186.26l-41.88,41.88h-78.2l16-16h55.6ZM53.74,299.74l-16-16H186.26c4.88,4.88,38,37.87,41.88,41.88v78.2l-16-16v-55.6l-32.52-32.52Zm246,32.56V470.22l-16,16V325.74c4.88-4.88,37.87-37.95,41.88-41.88h78.2l-16,16h-55.6Zm5.6,91.6V334.66l29.24-29.24h55.6l21.56-21.56-21.6-21.6H316.7l-54.56,54.52V430.86c-81.16,3-152.27-51.07-174-125.52h89.16l29.24,29.24v55.6l21.56,21.56,21.6-21.6V316.7l-54.52-54.56h-114c-3.09-81.16,51-152.3,125.44-174v89.24l-29.24,29.24h-55.6l-21.56,21.56,21.6,21.6H195.3l54.56-54.52V81.1C331.08,78,402.31,132.13,424,206.66H334.66l-29.24-29.24v-55.6l-21.56-21.56-21.6,21.6V195.3l54.52,54.56H431C434.06,331.08,379.86,402.28,305.34,423.9Zm20.4-195.64-41.88-41.88v-78.2l16,16v55.6l32.52,32.52H458.26l16,16Z"/>
  <rect class="cls-2" width="512" height="512"/>
</svg>